<?xml version="1.0" ?><svg id="Multicolor" viewBox="0 0 100 112" xmlns="http://www.w3.org/2000/svg" xmlns:xlink="http://www.w3.org/1999/xlink"><defs><style>.cls-1,.cls-10{fill:none;}.cls-2{fill:#fff0ed;}.cls-3{clip-path:url(#clip-path);}.cls-4{fill:#ff6242;}.cls-5{fill:#ff8a14;}.cls-6{fill:#ffe500;}.cls-7{fill:#6dd627;}.cls-8{fill:#00b8f0;}.cls-9{fill:#9f5ae5;}.cls-10{stroke:#45413c;stroke-linecap:round;stroke-linejoin:round;}</style><clipPath id="clip-path"><circle class="cls-1" cx="49.976" cy="55.795" r="40"/></clipPath></defs><title/><g id="Scene"><g data-name="New Symbol 1" id="New_Symbol_1-15"><circle class="cls-2" cx="49.978" cy="55.795" r="40"/></g><g class="cls-3"><path class="cls-4" d="M65.1,27.762a3.553,3.553,0,0,0-4.034,3L59.81,39.332h7.181L68.1,31.8A3.553,3.553,0,0,0,65.1,27.762Z"/><path class="cls-4" d="M39.722,36.431a3.552,3.552,0,1,0-7,1.234l.293,1.667h7.215Z"/><polygon class="cls-5" points="40.234 39.332 33.019 39.332 35.192 51.653 42.406 51.653 40.234 39.332"/><polygon class="cls-5" points="58.003 51.653 65.184 51.653 66.991 39.332 59.81 39.332 58.003 51.653"/><path class="cls-6" d="M57.731,53.505,43.237,56.351a3.551,3.551,0,0,0-.219-1.229l-.612-3.469H35.192l.941,5.33V61.3c0,.974.039,1.862.112,2.679H77.074A4.271,4.271,0,0,0,71.49,57.62l-5.465,3.6a1.334,1.334,0,0,1-2.053-1.308l1.212-8.256H58Z"/><path class="cls-7" d="M39.64,76.3H62.9c2.41-3.31,6.582-7.133,13.28-11.542a4.26,4.26,0,0,0,.89-.779H36.245C36.8,70.325,39.28,72.318,39.64,76.3Z"/><path class="cls-8" d="M39.685,77.28V88.616H60.109V83.544A12.421,12.421,0,0,1,62.9,76.3H39.64C39.669,76.61,39.685,76.937,39.685,77.28Z"/><rect class="cls-9" height="12.321" width="20.425" x="39.685" y="88.616"/><path class="cls-10" d="M43.237,56.351a3.528,3.528,0,0,0-.219-1.229l-3.3-18.691a3.552,3.552,0,0,0-7,1.234l3.406,19.318V61.3c0,9.15,3.553,10.754,3.553,15.985V104l20.424-.148V83.544c0-4.587,3.79-10.7,16.076-18.791a4.27,4.27,0,0,0-4.7-7.133l-5.464,3.6a1.334,1.334,0,0,1-2.053-1.307L68.1,31.8a3.552,3.552,0,1,0-7.028-1.039L57.731,53.505Z"/><path class="cls-5" d="M53.893,48.261a3.552,3.552,0,0,0-3.548,3.392h7.1A3.554,3.554,0,0,0,53.893,48.261Z"/><path class="cls-6" d="M50.341,61.138a3.549,3.549,0,0,0,1.413,2.836h4.278a3.549,3.549,0,0,0,1.413-2.836V51.813c0-.053,0-.107,0-.16h-7.1c0,.053,0,.107,0,.16Z"/><path class="cls-7" d="M53.893,64.69a3.54,3.54,0,0,0,2.139-.716H51.754A3.54,3.54,0,0,0,53.893,64.69Z"/><path class="cls-10" d="M53.893,64.69a3.552,3.552,0,0,1-3.552-3.552V51.813a3.552,3.552,0,0,1,7.1,0v9.325A3.552,3.552,0,0,1,53.893,64.69Z"/><path class="cls-5" d="M46.789,49.5a3.552,3.552,0,0,0-3.267,2.156h6.533A3.552,3.552,0,0,0,46.789,49.5Z"/><path class="cls-6" d="M43.237,63.262a3.627,3.627,0,0,0,.071.712h6.961a3.553,3.553,0,0,0,.072-.712V53.049a3.526,3.526,0,0,0-.286-1.4H43.522a3.543,3.543,0,0,0-.285,1.4Z"/><path class="cls-7" d="M46.789,66.814a3.552,3.552,0,0,0,3.48-2.84H43.308A3.554,3.554,0,0,0,46.789,66.814Z"/><path class="cls-10" d="M46.789,66.814a3.552,3.552,0,0,1-3.552-3.552V53.049a3.552,3.552,0,1,1,7.1,0V63.262A3.552,3.552,0,0,1,46.789,66.814Z"/><path class="cls-10" d="M45.246,72.25s3.719-2.64,6.516-2.64a19.046,19.046,0,0,1,5.207.775"/></g></g></svg>